<svg viewBox="90 90 2190 1470" fill="none" xmlns="http://www.w3.org/2000/svg" xmlns:xlink="http://www.w3.org/1999/xlink" overflow="visible" width="2190px" height="1470px"><g id="Master/Scenes/Keeping in Touch"><g id="Plant" transform="matrix(-1 0 0 1 645 659) scale(1 1)"><g id="Plant/Plant 4"><g id="Group"><path id="Leaf 1" fill-rule="evenodd" clip-rule="evenodd" d="M244.073 853.531C244.073 853.531 229.605 825.503 258.609 781.305C320.021 687.725 220.705 732.861 198.735 668.952C180.821 616.844 210.646 564.196 180.697 550.247C131.673 527.415 80.5689 493.756 113.394 455.673C136.426 428.951 215.766 431.361 246.876 513.594C266.343 565.053 343.053 530.725 411.113 612.247C431.383 636.525 475.896 739.273 452.538 853.531H244.073Z" fill="#141414"/><g id="Leaf 2"><path id="Fill 4" fill-rule="evenodd" clip-rule="evenodd" d="M325.4 853.531C325.4 853.531 292.267 812.469 308.337 767.439C321.299 731.113 356.08 721.177 357.246 690.58C358.715 651.998 320.005 657.304 313.88 609.666C309.121 572.647 331.764 538.601 330.274 518.912C328.019 489.125 277.108 473.667 259.627 428.872C237.463 372.078 306.465 359.105 337.2 378.311C375.779 402.42 377.083 438.391 393.995 460.04C413.202 484.628 473.325 490.149 481.957 550.772C487.431 589.221 464.978 622.629 475.56 655.181C483.421 679.36 530.35 690.035 540.227 743.465C550.858 800.979 507.981 853.531 507.981 853.531H325.4Z" fill="#FFB500"/><path id="Fill 6" fill-rule="evenodd" clip-rule="evenodd" d="M421.477 853.531H425.526C426.979 844.145 439.717 755.435 420.897 649.779C404.689 558.787 355.569 473.723 315.005 424.457C314.303 423.604 313.044 423.482 312.19 424.184C311.337 424.886 311.215 426.147 311.917 427C334.131 453.979 356.129 488.489 373.859 524.173C394.869 566.456 409.772 610.133 416.959 650.48C436.272 758.899 422.159 849.312 421.477 853.531" fill="#070707"/></g></g></g></g><g id="Seat" transform="matrix(-1 0 0 1 2008.24 871) scale(1.0391294021015018 1.039129356971154)"><g id="Seat/Bench 2"><path id="Combined Shape" fill-rule="evenodd" clip-rule="evenodd" d="M95 631.586L159.891 399H217.703L122.781 631.586H95ZM531.504 632L426.386 399H485.607L549.27 632H531.504Z" fill="#FF4B33"/><rect id="Rectangle" x="108" y="283" width="430" height="124" rx="30" fill="#FFC81A"/></g></g><g id="Master/Character/Sitting" transform="matrix(-1 0 0 1 2255 480) scale(1 1)"><g id="Master/Character/Sitting"><g id="Lower Body Sit" transform="translate(264 454) scale(1 1)"><g id="Lower Body Sit/Sitting"><g id="Sitting"><g id="Assets 38"><path id="SKIN" fill-rule="evenodd" clip-rule="evenodd" d="M521.7 491.689L535.26 542.336L605.766 548.21L601.875 499.08" fill="white"/><path id="Fill 2" fill-rule="evenodd" clip-rule="evenodd" d="M605.768 550.208C605.712 550.208 605.657 550.206 605.601 550.201L535.094 544.329C534.55 544.284 534.049 544.019 533.705 543.595C533.363 543.171 533.207 542.625 533.276 542.084L519.716 491.437C519.856 490.339 520.876 489.564 521.953 489.704C523.048 489.844 523.824 490.845 523.685 491.94L537.507 540.517L604.359 546.084L599.975 498.456C600.319 497.407 601.446 496.833 602.498 497.179C603.548 497.522 604.12 498.652 603.776 499.702L607.667 548.831C607.397 549.658 606.625 550.208 605.768 550.208" fill="#141414"/><path id="Fill 4" fill-rule="evenodd" clip-rule="evenodd" d="M532.376 539.599C532.634 538.582 533.634 537.939 534.667 538.123C535.65 538.3 536.895 538.539 538.36 538.822C547.342 540.55 566.031 544.147 583.742 544.161H583.787C594.221 544.161 603.397 541.307 609.625 536.122C610.12 535.71 610.782 535.564 611.408 535.724C641.806 543.638 663.769 549.356 680.045 560.211C682.905 562.12 693.222 570.448 691.437 576.338C690.612 579.062 687.674 580.443 682.704 580.443C664.56 580.443 625.469 580.544 590.98 580.634C563.073 580.707 538.973 580.77 529.899 580.77C528.94 580.77 528.075 580.335 527.462 579.546C523.889 574.95 529.708 550.078 532.376 539.599" fill="#ffc81a"/><path id="Fill 6" fill-rule="evenodd" clip-rule="evenodd" d="M530.264 589.577H687.101C689.707 589.577 691.82 587.464 691.82 584.857V583.298C691.82 580.691 689.707 578.579 687.101 578.579H530.264C527.659 578.579 525.545 580.691 525.545 583.298V584.857C525.545 587.464 527.659 589.577 530.264 589.577" fill="#141414"/><path id="Fill 8" fill-rule="evenodd" clip-rule="evenodd" d="M642.56 554.567C643.355 554.567 644.117 554.12 644.481 553.354C647.818 546.346 654.229 548.061 654.95 548.282C656.068 548.621 657.257 547.996 657.605 546.88C657.952 545.762 657.337 544.577 656.223 544.223C652.587 543.069 644.649 543.111 640.641 551.526C640.136 552.587 640.586 553.855 641.647 554.36C641.942 554.501 642.253 554.567 642.56 554.567" fill="#141414"/><path id="Fill 10" fill-rule="evenodd" clip-rule="evenodd" d="M623.778 549.444C624.573 549.444 625.336 548.997 625.7 548.231C629.037 541.223 635.448 542.938 636.168 543.159C637.287 543.499 638.476 542.873 638.823 541.757C639.17 540.639 638.555 539.454 637.441 539.1C633.801 537.947 625.865 537.99 621.86 546.403C621.355 547.464 621.805 548.732 622.866 549.237C623.161 549.378 623.471 549.444 623.778 549.444" fill="#141414"/></g><g id="Assets 39"><path id="SKIN_2" fill-rule="evenodd" clip-rule="evenodd" d="M354.859 492.695L348.419 543.342L418.925 549.216L435.034 500.086" fill="white"/><path id="Fill 14" fill-rule="evenodd" clip-rule="evenodd" d="M418.926 551.214C418.87 551.214 418.815 551.212 418.759 551.207L348.252 545.335C347.708 545.29 347.207 545.025 346.863 544.601C346.521 544.177 346.365 543.631 346.434 543.09L352.874 492.443C353.014 491.345 354.034 490.57 355.111 490.71C356.206 490.85 356.982 491.851 356.843 492.946L350.665 541.523L417.517 547.09L433.133 499.462C433.477 498.413 434.604 497.839 435.656 498.185C436.706 498.528 437.278 499.658 436.934 500.708L420.825 549.837C420.555 550.664 419.783 551.214 418.926 551.214" fill="#141414"/><path id="Fill 16" fill-rule="evenodd" clip-rule="evenodd" d="M345.534 540.605C345.792 539.588 346.792 538.945 347.825 539.129C348.808 539.306 350.053 539.545 351.518 539.828C360.5 541.556 379.189 545.153 396.9 545.167H396.945C407.379 545.167 416.555 542.313 422.783 537.128C423.278 536.716 423.94 536.57 424.566 536.73C454.964 544.644 476.927 550.362 493.203 561.217C496.063 563.126 506.38 571.454 504.596 577.344C503.77 580.068 500.832 581.449 495.862 581.449C477.718 581.449 438.627 581.55 404.138 581.64C376.231 581.713 352.131 581.776 343.057 581.776C342.098 581.776 341.233 581.341 340.62 580.552C337.047 575.956 342.866 551.084 345.534 540.605" fill="#ffc81a"/><path id="Fill 18" fill-rule="evenodd" clip-rule="evenodd" d="M343.422 590.583H500.259C502.865 590.583 504.978 588.47 504.978 585.863V584.304C504.978 581.697 502.865 579.585 500.259 579.585H343.422C340.817 579.585 338.703 581.697 338.703 584.304V585.863C338.703 588.47 340.817 590.583 343.422 590.583" fill="#141414"/><path id="Fill 21" fill-rule="evenodd" clip-rule="evenodd" d="M455.718 555.572C456.513 555.572 457.275 555.125 457.639 554.359C460.976 547.351 467.387 549.066 468.108 549.287C469.226 549.626 470.415 549.001 470.763 547.885C471.11 546.767 470.495 545.582 469.381 545.228C465.745 544.074 457.807 544.116 453.799 552.531C453.294 553.592 453.744 554.86 454.805 555.365C455.1 555.506 455.411 555.572 455.718 555.572" fill="#141414"/><path id="Fill 23" fill-rule="evenodd" clip-rule="evenodd" d="M436.937 550.45C437.732 550.45 438.495 550.003 438.859 549.237C442.196 542.229 448.607 543.944 449.327 544.165C450.446 544.505 451.635 543.879 451.982 542.763C452.329 541.645 451.714 540.46 450.6 540.106C446.96 538.953 439.024 538.996 435.019 547.409C434.514 548.47 434.964 549.738 436.025 550.243C436.32 550.384 436.63 550.45 436.937 550.45" fill="#141414"/></g><g id="Pant 2"><path id="Fill 25" fill-rule="evenodd" clip-rule="evenodd" d="M472.057 120H357.391C327.02 120 435.016 255.826 435.016 255.826C435.54 268.396 436.998 495.136 436.998 495.136C510.551 510.252 570.338 514.593 620.763 506.561C620.763 506.561 594.334 309.901 572.444 196.945C561.108 138.45 512.953 120 472.057 120" fill="#141414"/><g id="Combined Shape"><path fill-rule="evenodd" clip-rule="evenodd" d="M498.197 273.613C499.287 273.436 500.027 272.408 499.849 271.318L497.924 259.473C497.747 258.383 496.726 257.644 495.629 257.82C494.539 257.997 493.799 259.025 493.976 260.115L495.902 271.96C496.061 272.942 496.91 273.639 497.873 273.639C497.98 273.639 498.088 273.631 498.197 273.613ZM502.049 297.302C503.139 297.125 503.879 296.098 503.701 295.007L501.776 283.163C501.599 282.073 500.581 281.334 499.481 281.51C498.391 281.687 497.651 282.715 497.828 283.804L499.754 295.65C499.913 296.631 500.762 297.328 501.725 297.328C501.832 297.328 501.94 297.321 502.049 297.302ZM522.957 413.451C523.135 414.542 522.395 415.569 521.305 415.746C521.196 415.765 521.088 415.772 520.982 415.772C520.018 415.772 519.169 415.075 519.01 414.094L517.084 402.25C516.907 401.159 517.647 400.132 518.737 399.955C519.827 399.773 520.855 400.517 521.032 401.607L522.957 413.451ZM525.156 439.436C526.246 439.259 526.986 438.232 526.808 437.141L524.883 425.296C524.706 424.206 523.679 423.462 522.588 423.644C521.498 423.821 520.758 424.848 520.935 425.939L522.861 437.784C523.02 438.765 523.869 439.462 524.833 439.462C524.939 439.462 525.047 439.455 525.156 439.436ZM536.71 510.502C537.8 510.325 538.54 509.298 538.362 508.207L536.437 496.363C536.26 495.273 535.243 494.523 534.142 494.711C533.052 494.888 532.312 495.915 532.489 497.006L534.415 508.85C534.574 509.831 535.423 510.528 536.387 510.528C536.493 510.528 536.601 510.521 536.71 510.502ZM532.858 486.814C533.948 486.637 534.688 485.61 534.51 484.519L532.585 472.674C532.408 471.584 531.38 470.838 530.29 471.022C529.2 471.199 528.46 472.226 528.637 473.317L530.563 485.162C530.722 486.143 531.571 486.84 532.535 486.84C532.641 486.84 532.749 486.833 532.858 486.814ZM530.659 460.829C530.837 461.92 530.097 462.947 529.007 463.124C528.898 463.143 528.79 463.15 528.684 463.15C527.72 463.15 526.871 462.453 526.712 461.472L524.787 449.628C524.61 448.537 525.35 447.51 526.44 447.333C527.528 447.149 528.558 447.895 528.735 448.985L530.659 460.829ZM507.551 318.695C507.729 319.786 506.989 320.813 505.899 320.99C505.79 321.009 505.682 321.016 505.576 321.016C504.612 321.016 503.763 320.319 503.604 319.338L501.678 307.494C501.501 306.403 502.241 305.376 503.331 305.199C504.43 305.012 505.449 305.761 505.626 306.851L507.551 318.695ZM519.105 389.763C519.283 390.854 518.543 391.881 517.453 392.058C517.344 392.077 517.236 392.084 517.13 392.084C516.166 392.084 515.317 391.387 515.158 390.406L513.232 378.561C513.055 377.47 513.795 376.443 514.885 376.266C515.974 376.081 517.003 376.828 517.18 377.918L519.105 389.763ZM509.751 344.68C510.841 344.503 511.581 343.476 511.403 342.385L509.478 330.54C509.301 329.45 508.272 328.705 507.183 328.888C506.093 329.065 505.353 330.092 505.53 331.183L507.456 343.028C507.615 344.009 508.464 344.706 509.428 344.706C509.534 344.706 509.642 344.699 509.751 344.68ZM515.255 366.073C515.433 367.164 514.693 368.191 513.603 368.368C513.494 368.387 513.386 368.394 513.28 368.394C512.316 368.394 511.467 367.697 511.308 366.716L509.382 354.872C509.205 353.781 509.945 352.754 511.035 352.577C512.134 352.391 513.153 353.139 513.33 354.229L515.255 366.073Z" fill="white" fill-opacity="0.8" style="mix-blend-mode:overlay"/></g></g><g id="Pant 1"><path id="Fill 1" fill-rule="evenodd" clip-rule="evenodd" d="M394.453 120H162.768C162.768 120 139.333 203.554 186.939 249.256C230.816 291.379 331.095 276.308 352.09 272.593L355.538 250.897C355.711 249.806 356.749 249.064 357.827 249.235C358.917 249.409 359.662 250.434 359.489 251.525L355.932 273.906C354.257 299.842 322.931 513.136 322.931 513.136C382.761 530.69 459.88 532.324 499.943 524.561C499.943 524.561 500.676 324.292 492.645 201.026C489.188 147.972 447.017 120 394.453 120Z" fill="#0B379B"/><g id="Combined Shape_2"><path fill-rule="evenodd" clip-rule="evenodd" d="M201.133 132.369C200.718 128.867 200.685 126.626 200.685 126.603C200.671 125.508 199.778 124.629 198.685 124.629H198.66C197.556 124.642 196.672 125.548 196.685 126.652C196.686 126.75 196.718 129.107 197.16 132.84C197.281 133.857 198.145 134.604 199.144 134.604C199.223 134.604 199.302 134.6 199.382 134.591C200.479 134.461 201.263 133.466 201.133 132.369ZM385.308 442.829C384.218 442.744 383.246 443.57 383.163 444.673C382.854 448.765 382.549 452.764 382.251 456.652C382.167 457.753 382.992 458.715 384.093 458.799C384.145 458.803 384.197 458.805 384.247 458.805C385.283 458.805 386.16 458.007 386.24 456.957C386.537 453.068 386.842 449.067 387.152 444.974C387.235 443.873 386.41 442.912 385.308 442.829ZM379.436 492.594C379.523 491.493 380.482 490.683 381.588 490.759C382.69 490.848 383.511 491.812 383.423 492.912C383.068 497.341 382.745 501.359 382.458 504.899C382.373 505.945 381.498 506.737 380.467 506.737C380.44 506.737 380.414 506.736 380.386 506.735L380.36 506.734L380.341 506.733C380.329 506.732 380.316 506.731 380.303 506.73C379.202 506.641 378.382 505.676 378.472 504.574C378.759 501.036 379.082 497.021 379.436 492.594ZM383.475 466.793C382.371 466.721 381.412 467.53 381.326 468.632C381 472.807 380.687 476.811 380.387 480.612C380.3 481.714 381.122 482.677 382.224 482.764C382.243 482.766 382.262 482.767 382.281 482.768C382.303 482.769 382.325 482.769 382.347 482.77C382.359 482.77 382.371 482.77 382.383 482.77C383.416 482.77 384.292 481.975 384.375 480.927C384.675 477.123 384.989 473.119 385.314 468.942C385.4 467.841 384.577 466.879 383.475 466.793ZM388.311 372.783C388.384 371.682 389.323 370.826 390.44 370.922C391.542 370.995 392.376 371.948 392.301 373.051C392.034 377.048 391.762 381.052 391.487 385.048C391.415 386.103 390.536 386.91 389.494 386.91C389.448 386.91 389.401 386.908 389.354 386.905C388.252 386.829 387.42 385.875 387.497 384.773C387.772 380.779 388.044 376.778 388.311 372.783ZM380.171 226.516C380.9 226.516 381.601 226.117 381.954 225.424C382.456 224.44 382.066 223.236 381.082 222.734C377.875 221.098 374.145 219.404 369.994 217.697C368.971 217.276 367.803 217.766 367.384 218.787C366.964 219.808 367.451 220.976 368.473 221.396C372.524 223.062 376.154 224.711 379.264 226.297C379.555 226.446 379.865 226.516 380.171 226.516ZM384.944 420.715C385.025 419.613 385.977 418.793 387.085 418.865C388.187 418.946 389.015 419.904 388.935 421.006C388.638 425.055 388.343 429.056 388.049 432.991C387.971 434.042 387.094 434.842 386.057 434.842C386.032 434.842 386.007 434.842 385.982 434.841L385.957 434.84C385.94 434.839 385.923 434.838 385.905 434.836C384.804 434.754 383.978 433.794 384.061 432.692C384.355 428.76 384.649 424.762 384.944 420.715ZM388.799 394.899C387.713 394.835 386.742 395.653 386.664 396.754C386.382 400.771 386.098 404.769 385.813 408.734C385.734 409.836 386.563 410.794 387.664 410.873C387.688 410.874 387.711 410.875 387.734 410.876C387.747 410.877 387.759 410.877 387.772 410.877C387.785 410.877 387.797 410.878 387.81 410.878C388.849 410.878 389.727 410.074 389.803 409.021C390.088 405.054 390.372 401.054 390.654 397.034C390.732 395.932 389.902 394.976 388.799 394.899ZM231.305 177.892C234.019 178.819 237.754 179.929 242.722 181.286C243.788 181.577 244.415 182.677 244.124 183.742C243.882 184.631 243.076 185.216 242.196 185.216C242.022 185.216 241.845 185.193 241.668 185.144C236.618 183.765 232.806 182.631 230.013 181.677C228.968 181.32 228.409 180.183 228.766 179.138C229.123 178.093 230.259 177.535 231.305 177.892ZM203.316 143.869C203.033 142.801 201.94 142.167 200.871 142.447C199.803 142.73 199.167 143.825 199.449 144.892C200.543 149.027 201.925 152.936 203.556 156.512C203.892 157.247 204.618 157.682 205.377 157.682C205.654 157.682 205.937 157.624 206.206 157.501C207.211 157.043 207.653 155.856 207.195 154.851C205.658 151.481 204.353 147.786 203.316 143.869ZM254.319 184.338C257.973 185.275 261.874 186.261 265.964 187.29C267.035 187.56 267.685 188.646 267.416 189.717C267.188 190.625 266.373 191.23 265.478 191.23C265.316 191.23 265.152 191.21 264.988 191.169C260.891 190.139 256.985 189.151 253.325 188.212C252.256 187.938 251.61 186.848 251.885 185.778C252.159 184.708 253.247 184.061 254.319 184.338ZM391.986 346.959C390.904 346.894 389.934 347.729 389.865 348.83C389.616 352.798 389.361 356.798 389.099 360.814C389.028 361.917 389.863 362.868 390.965 362.94C391.009 362.943 391.053 362.944 391.097 362.944C392.142 362.944 393.022 362.132 393.091 361.074C393.353 357.054 393.608 353.052 393.857 349.08C393.926 347.978 393.089 347.028 391.986 346.959ZM347.244 209.484C351.299 210.8 355.147 212.108 358.681 213.374C359.721 213.746 360.262 214.891 359.89 215.931C359.598 216.748 358.827 217.257 358.007 217.257C357.784 217.257 357.556 217.22 357.333 217.14C353.836 215.888 350.027 214.592 346.01 213.289C344.959 212.948 344.384 211.82 344.725 210.77C345.066 209.719 346.192 209.145 347.244 209.484ZM335.729 205.891C332.083 204.793 328.19 203.656 324.163 202.511C323.099 202.208 321.994 202.826 321.692 203.888C321.39 204.951 322.006 206.057 323.069 206.359C327.077 207.498 330.949 208.629 334.577 209.721C334.768 209.779 334.962 209.807 335.154 209.807C336.013 209.807 336.807 209.248 337.068 208.383C337.386 207.325 336.787 206.209 335.729 205.891ZM300.934 196.192C304.791 197.204 308.677 198.237 312.557 199.291C313.623 199.581 314.253 200.679 313.963 201.745C313.722 202.636 312.915 203.222 312.034 203.222C311.861 203.222 311.684 203.199 311.509 203.151C307.64 202.101 303.766 201.07 299.919 200.062C298.851 199.781 298.212 198.688 298.492 197.62C298.772 196.551 299.863 195.915 300.934 196.192ZM289.284 193.179C285.319 192.165 281.42 191.179 277.625 190.222C276.551 189.949 275.466 190.601 275.197 191.673C274.927 192.744 275.576 193.831 276.647 194.101C280.439 195.056 284.333 196.042 288.293 197.054C288.459 197.096 288.626 197.117 288.79 197.117C289.682 197.117 290.495 196.516 290.726 195.612C291 194.542 290.354 193.452 289.284 193.179ZM392.749 235.911C391.915 234.813 390.687 233.607 389.135 232.378C388.27 231.692 388.123 230.434 388.81 229.568C389.495 228.702 390.753 228.557 391.619 229.242C393.435 230.681 394.9 232.128 395.974 233.545C396.569 234.361 397.205 235.83 397.602 240.773C397.691 241.874 396.869 242.838 395.769 242.926C395.714 242.931 395.66 242.933 395.607 242.933C394.574 242.933 393.699 242.139 393.615 241.093C393.277 236.885 392.803 235.998 392.749 235.911ZM396.004 250.921H395.996C394.892 250.924 394 251.824 394.004 252.928L394.007 254.546C394.007 257.607 393.968 261.09 393.892 264.9C393.87 266.005 394.747 266.919 395.852 266.941H395.893C396.979 266.941 397.869 266.072 397.892 264.98C397.968 261.145 398.007 257.633 398.007 254.546L398.004 252.913C398 251.812 397.106 250.921 396.004 250.921ZM393.566 276.89C393.603 275.786 394.543 274.905 395.631 274.957C396.735 274.994 397.6 275.919 397.564 277.022C397.437 280.848 397.282 284.866 397.108 289.05C397.063 290.125 396.177 290.966 395.11 290.966C395.103 290.966 395.097 290.966 395.09 290.966C395.082 290.966 395.075 290.966 395.067 290.965L395.031 290.964L395.026 290.964C393.922 290.918 393.065 289.985 393.111 288.882C393.286 284.711 393.439 280.703 393.566 276.89ZM393.411 322.972C392.296 322.92 391.363 323.753 391.301 324.856C391.077 328.794 390.844 332.795 390.6 336.843C390.534 337.946 391.374 338.894 392.476 338.959C392.517 338.962 392.558 338.963 392.599 338.963C393.648 338.963 394.529 338.145 394.593 337.083C394.836 333.03 395.071 329.025 395.295 325.082C395.357 323.98 394.514 323.034 393.411 322.972ZM392.568 300.875C392.621 299.771 393.556 298.929 394.663 298.974C395.767 299.028 396.617 299.965 396.564 301.069C396.375 304.97 396.172 308.979 395.955 313.078C395.898 314.145 395.016 314.972 393.96 314.972C393.924 314.972 393.889 314.971 393.852 314.969C392.749 314.911 391.902 313.969 391.961 312.867C392.178 308.774 392.381 304.771 392.568 300.875ZM379.712 513.97C378.605 513.868 377.645 514.699 377.555 515.799L377.06 521.773C376.968 522.873 377.785 523.841 378.886 523.933C378.942 523.938 378.999 523.94 379.055 523.94C380.084 523.94 380.958 523.151 381.046 522.107L381.541 516.127C381.632 515.027 380.813 514.061 379.712 513.97ZM237.527 126.377C237.576 126.765 238.71 136.012 236.87 146.34C234.604 159.057 228.759 167.757 219.904 171.739C220.017 171.83 220.13 171.921 220.243 172.012C220.551 172.261 220.858 172.509 221.175 172.739C222.069 173.388 222.267 174.639 221.618 175.532C221.227 176.071 220.617 176.357 219.998 176.357C219.591 176.357 219.18 176.233 218.825 175.975C215.526 173.58 212.521 170.625 209.892 167.192C209.221 166.315 209.388 165.059 210.265 164.388C211.142 163.717 212.398 163.883 213.068 164.76C214.166 166.194 215.343 167.523 216.574 168.764C237.611 161.317 233.602 127.225 233.558 126.878C233.42 125.782 234.197 124.782 235.292 124.644C236.391 124.511 237.388 125.281 237.527 126.377Z" fill="white" fill-opacity="0.8" style="mix-blend-mode:overlay"/></g></g></g></g></g><g id="Upper Body" transform="translate(272 187) scale(1 1)"><g id="Upper Body/Arms Up"><g id="Hand 2"><path id="Fill 1" fill-rule="evenodd" clip-rule="evenodd" d="M560.16 -34.3514C569.879 -49.9984 562.375 -53.7434 556.969 -50.4444C556.969 -50.4444 566.331 -61.9514 561.719 -66.9354C558.838 -70.0484 555.813 -69.6134 548.12 -62.5704C548.12 -62.5704 556.886 -75.4724 551.883 -80.4344C547.24 -85.0394 540.852 -76.4744 535.236 -69.9134C535.236 -69.9134 540.405 -85.9924 531.602 -86.7024C522.891 -87.4054 510.396 -61.8114 505.147 -51.2544C506.926 -64.1174 499.355 -76.1754 495.147 -70.5944C489.947 -63.6954 468.963 3.18864 437.212 60.5956C396.851 126.217 346.852 120.953 346.852 120.953L373.702 209.871C373.702 209.871 381.576 214.172 412.329 196.995C468.061 165.865 500.494 101.519 514.878 65.9216C516.216 65.1286 517.027 64.3456 517.205 63.6106C518.436 58.5506 519.82 53.5846 521.313 48.7216C522.808 44.3496 523.623 41.6176 523.801 41.0126C535.176 7.40964 551.348 -20.1654 560.16 -34.3514" fill="white"/><path id="Fill 3" fill-rule="evenodd" clip-rule="evenodd" d="M561.733 -56.5878C564.333 -60.9308 567.002 -67.3568 563.278 -71.3798C560.525 -74.3538 557.629 -74.5488 554.245 -72.8438C559.472 -86.4268 547.651 -91.9818 538.813 -80.3328C539.313 -85.4618 537.627 -91.4528 531.772 -91.8218C524.122 -92.4418 515.539 -79.0878 507.174 -62.9748C505.749 -71.7408 500.2 -81.5888 493.446 -74.8748C480.571 -45.5298 462.797 6.21723 439.05 49.9612C438.862 50.3002 438.006 52.0812 437.757 52.5072C418.669 85.1312 397.318 100.63 381.765 107.967C372.61 112.285 364.492 114.29 358.414 115.201L359.616 119.343C365.894 118.354 374.058 116.269 383.3 111.945C416.556 96.3862 437.805 63.8802 450.013 38.4722C450.382 37.7042 451.979 33.8002 452.324 33.0912C471.261 -5.78978 486.289 -47.1228 496.844 -72.3148C499.937 -74.6498 504.407 -63.1968 503.039 -54.5458C502.84 -52.2018 502.903 -49.9688 503.541 -47.6758C503.92 -45.5038 505.998 -43.9738 507.608 -42.4938C513.66 -36.9308 511.499 -26.8318 511.363 -26.2398C511.221 -25.6188 511.204 -25.2128 510.98 -24.7538C510.345 -23.5138 512.07 -22.5678 512.773 -23.7338C517.199 -31.3578 513.586 -41.2838 508.298 -47.5128C507.367 -49.2928 507.083 -52.0698 507.43 -54.0728C511.617 -62.5018 524.358 -88.1528 531.43 -87.5838C536.702 -86.6248 534.262 -77.9878 533.28 -73.7968L522.773 -56.9388C522.298 -56.1778 522.531 -55.1758 523.292 -54.7008C524.029 -54.2418 524.994 -54.4488 525.485 -55.1528C525.485 -55.1528 536.92 -71.6128 536.92 -71.6138C540.771 -75.5378 546.403 -84.8018 550.384 -81.9238C554.941 -74.6368 538.525 -56.2928 535.145 -49.4528C533.974 -47.7028 536.689 -45.8518 537.89 -47.5848L549.714 -64.1478C557.559 -71.2918 558.88 -69.8698 560.156 -68.4908C562.686 -65.7578 557.988 -58.0768 555.317 -54.7848C555.31 -54.7698 546.123 -43.1988 546.113 -43.1838C544.912 -41.7128 547.138 -39.7918 548.419 -41.1948L558.284 -51.7418C564.496 -54.4588 564.123 -47.9888 558.353 -38.4718C552.561 -32.2918 526.519 20.9002 519.732 43.8992C519.258 45.5052 516.831 51.9482 516.279 53.4242C512.062 64.6952 505.36 80.8202 495.94 98.3802C466.515 153.228 433.666 179.64 411.29 192.138C398.552 199.252 389.893 202.569 384.199 204.063L385.389 208.164C392.85 206.194 402.233 202.068 413.364 195.85C454.829 172.69 483.218 131.11 499.733 100.306C508.721 83.5422 515.262 68.0612 519.557 56.7782C519.847 56.0162 525.613 39.3732 525.821 38.6732C534.059 14.3192 546.172 -10.8048 561.965 -36.2298C569.682 -49.3988 567.928 -54.7358 561.733 -56.5878" fill="#141414"/></g><g id="Hand 1"><path id="Fill 5" fill-rule="evenodd" clip-rule="evenodd" d="M176.791 125.019C136.04 117.495 99.604 92.851 75.992 36.836L75.763 36.79C54.144 -19.269 42.144 -77.296 38.068 -84.064C34.462 -90.052 25.681 -78.844 26.116 -65.866C21.991 -76.911 12.218 -103.663 3.48 -103.867C-5.349 -104.073 -1.875 -87.545 -1.875 -87.545C-6.78 -94.653 -12.245 -103.835 -17.341 -99.736C-22.832 -95.319 -15.451 -81.578 -15.451 -81.578C-22.372 -89.38 -25.335 -90.127 -28.523 -87.33C-33.628 -82.851 -25.51 -70.436 -25.51 -70.436C-30.545 -74.277 -38.397 -71.331 -30.353 -54.76C-21.48 -36.484 -3.822 2.62401 2.21 47.129C2.333 48.038 3.365 49.113 5.148 50.267C34.348 150.81 98.315 192.986 150.49 214.09L176.791 125.019Z" fill="white"/><path id="Fill 7" fill-rule="evenodd" clip-rule="evenodd" d="M151.108 208.999C91.6087 184.818 23.4397 136.241 0.376747 20.361C0.273747 19.842 -0.442254 17.463 -0.711254 16.303C-7.99725 -10.578 -24.0603 -52.915 -28.4403 -58.688C-33.1933 -68.751 -32.8923 -75.225 -26.9963 -71.878L-18.2783 -60.366C-17.1493 -58.836 -14.7363 -60.517 -15.7783 -62.104C-15.7873 -62.12 -23.7243 -74.581 -23.7293 -74.598C-26.0453 -78.149 -29.9203 -86.275 -27.1213 -88.731C-25.7093 -89.971 -24.2473 -91.248 -17.1863 -83.328L-7.14325 -65.629C-6.12825 -63.78 -3.23625 -65.34 -4.21925 -67.202C-6.87225 -74.356 -21.2963 -94.304 -16.0093 -101.079C-11.7513 -103.528 -7.10925 -93.73 -3.68525 -89.427C-3.68625 -89.427 5.97975 -71.869 5.97975 -71.869C6.39475 -71.118 7.33375 -70.812 8.11375 -71.192C8.92075 -71.585 9.25475 -72.558 8.86275 -73.364L0.159744 -91.222C-0.382256 -95.492 -1.91226 -104.335 3.42974 -104.741C10.5237 -104.575 20.5357 -77.74 23.8257 -68.922C23.9627 -66.895 23.3917 -64.162 22.2807 -62.488C16.3757 -56.841 11.7537 -47.343 15.3647 -39.301C15.9427 -38.069 17.9287 -38.88 17.4257 -40.18C17.2497 -40.66 16.9317 -41.151 17.0267 -41.647C17.1407 -42.244 15.8517 -52.519 22.4477 -57.425C24.2017 -58.73 26.4267 -60.035 27.0297 -62.157C27.9017 -64.371 28.1967 -66.585 28.2417 -68.938C27.7777 -77.684 33.4127 -88.611 36.2467 -85.968C45.4447 -55.459 57.3767 -5.43395 76.3017 40.582C76.5527 41.241 77.9517 43.903 78.5467 45.05C92.9197 74.812 112.312 96.373 136.219 109.821C148.371 116.656 161.62 121.387 176.179 124.093L177.395 119.975C131.678 111.674 98.9058 83.1561 77.8857 33.2941C77.7587 32.9911 77.6137 32.719 77.3997 32.25C60.4748 -11.373 48.9737 -59.764 39.8917 -88.161C33.8697 -95.541 27.3297 -86.321 25.0037 -77.75C18.3547 -94.643 11.2037 -108.816 3.52975 -108.993C-2.33125 -109.232 -4.62925 -103.449 -4.66525 -98.296C-12.2473 -110.798 -24.5803 -106.5 -20.7903 -92.448C-23.9793 -94.495 -26.8803 -94.601 -29.9263 -91.929C-34.0473 -88.313 -32.0593 -81.646 -29.9243 -77.056C-36.2773 -75.857 -38.5763 -70.73 -32.2663 -56.832C-17.6333 -26.688 -9.35826 -2.04895 -2.31326 28.007C-1.77726 30.294 -0.366254 34.808 0.482746 38.29C14.3647 95.311 40.2897 136.812 76.8137 168.975C100.965 190.243 127.096 203.902 149.89 213.125L151.108 208.999Z" fill="#141414"/></g><path id="T Shirt" fill-rule="evenodd" clip-rule="evenodd" d="M367.246 196.113C366.982 194.969 367.696 193.827 368.841 193.563C369.984 193.298 371.127 194.014 371.391 195.158L377.628 222.234C414.481 213.224 421.061 197.817 421.061 197.817C421.061 197.817 414.999 149 389.999 102C323.999 108 305.999 99 295.999 99C275.999 92 236.998 94.1729 214.999 101C185.999 110 181.999 112 148.454 107.957C144.47 124.509 123.116 167.285 103.371 201.207C116.999 210 129.392 214.23 154.296 220.934L155.688 199.963C155.766 198.792 156.784 197.918 157.951 197.982C159.122 198.06 160.01 199.073 159.932 200.245L158.134 227.348C158.131 227.388 158.12 227.424 158.115 227.463C156.184 304.653 153.657 394.247 153.657 394.247L409.687 390.247C409.687 390.247 382.587 277.174 374.114 225.91C374.111 225.897 374.105 225.886 374.102 225.873L367.246 196.113Z" fill="#ffc81a"/><g id="neck"><path id="Fill 30" fill-rule="evenodd" clip-rule="evenodd" d="M238.539 70.6416L234.773 105.805C234.773 105.805 242.2 121.902 264.984 123.005C295.722 124.492 289.289 105.447 289.289 105.447L288.434 73.6896" fill="white"/><path id="Fill 32" fill-rule="evenodd" clip-rule="evenodd" d="M264.888 125.002C241.166 123.854 233.282 107.345 232.958 106.643C232.807 106.315 232.747 105.951 232.785 105.592L236.552 70.4284C236.669 69.3304 237.661 68.5354 238.753 68.6524C239.851 68.7704 240.647 69.7564 240.529 70.8544L236.826 105.428C238.215 108.003 245.735 120.07 265.082 121.006C275.333 121.499 284.198 119.67 286.937 115.708C289.747 111.644 287.482 106.302 287.459 106.249C287.357 106.014 287.298 105.755 287.291 105.5L286.436 73.7444C286.406 72.6404 287.277 71.7204 288.382 71.6914C289.477 71.6494 290.405 72.5324 290.435 73.6364L291.28 105.034C291.892 106.647 293.818 112.747 290.252 117.947C286.999 122.69 278.281 125.086 268.26 125.086C267.175 125.086 266.051 125.058 264.888 125.002Z" fill="#141414"/></g></g></g><g id="Head" transform="translate(439 92) scale(1 1)"><g id="Head/Bun 1"><path id="SKIN" fill-rule="evenodd" clip-rule="evenodd" d="M149.882 102.094C143.885 52.3538 111.153 49.4878 87.5365 53.7808C68.7135 57.2038 44.6345 72.7648 46.7665 104.073C37.3415 101.013 30.4605 106.742 29.2365 114.189C27.8495 122.64 32.2855 136.935 46.2375 134.473C49.2925 158.699 66.0495 186.607 111.579 181.938C146.05 178.402 155.34 147.368 149.882 102.094" fill="white"/><path id="Combined Shape" fill-rule="evenodd" clip-rule="evenodd" d="M48.2218 134.223C50.0038 147.852 56.1648 161.361 67.2638 169.967C80.2308 182.118 123.203 187.006 138.219 166.456C150.998 153.433 152.906 108.249 143.117 82.1546C136.341 82.9006 125.94 83.7646 116.458 83.3946C114.284 80.3254 111.939 74.4372 110.251 70.2005C109.438 68.1591 108.778 66.5011 108.363 65.7266C107.149 67.3883 108.797 76.1561 109.788 81.4324C109.982 82.462 110.15 83.3587 110.268 84.0436C97.0758 90.4936 68.8828 93.7306 53.0198 90.8096C52.8477 93.8559 53.3909 97.1587 53.8662 100.049C54.9346 106.546 55.6603 110.959 47.1488 105.69C33.7148 97.3736 26.8068 119.976 36.0728 128.937C41.1758 133.873 44.9738 134.217 48.2218 134.223ZM68.0298 20.0796C63.1798 22.1526 50.3648 27.8466 50.1838 33.2466C71.0618 15.7416 140.214 7.6086 161.314 70.6596C168.06 92.5106 172.203 170.211 170.874 177.185C159.948 179.461 143.566 181.963 128.953 181.631C128.698 180.908 128.536 180.137 128.41 179.347C110.504 187.697 84.463 186.383 69 176C69.4059 179.508 69.358 181.906 69.3227 183.671C69.2949 185.064 69.275 186.062 69.4918 186.9C54.2508 189.358 31.6008 183.212 31.6008 183.212C31.6008 183.212 -7.27916 103.685 29.5848 57.1906C20.9498 55.1986 2.86084 42.6746 15.1488 16.7706C24.6558 -3.2704 58.7758 -3.6294 68.0298 20.0796ZM43.8325 118.933C43.6189 119.964 43.4228 120.91 42.3775 120.698C39.1875 120.05 38.7805 115.497 41.6905 114.023C44.0785 112.814 44.8125 115.511 44.0495 118.022C43.9606 118.314 43.8958 118.627 43.8325 118.933Z" fill="#141414"/></g></g><g id="Face" transform="translate(499 178) scale(1 1)"><g id="Face/Happy"><path id="Happy" fill-rule="evenodd" clip-rule="evenodd" d="M28.2306 19.1149C27.9276 19.0909 27.4006 19.0529 26.9546 19.0459C26.6004 19.0306 26.2392 19.0399 25.8777 19.0491C25.7656 19.0519 25.6535 19.0548 25.5416 19.0569C24.5906 19.1039 23.6326 19.1709 22.6836 19.3199C20.7916 19.6309 18.8906 20.0459 17.0996 20.7939C15.3156 21.5319 13.5216 22.3529 11.9156 23.5119C10.3495 24.4885 8.95584 25.7236 7.53129 26.986L7.2006 27.2789L7.1066 27.3619C6.5836 27.8259 5.7816 27.7769 5.3176 27.2529C4.9206 26.8039 4.8996 26.1509 5.2316 25.6809C5.35826 25.502 5.48428 25.3217 5.61063 25.141C6.12273 24.4085 6.64007 23.6685 7.2256 22.9819C7.40976 22.7841 7.59172 22.5831 7.77402 22.3817L7.77412 22.3816C8.35009 21.7454 8.92952 21.1054 9.5926 20.5479C11.2736 19.0099 13.2106 17.7219 15.2756 16.6899C17.3466 15.6659 19.5596 14.8869 21.8466 14.4659C22.9886 14.2479 24.1466 14.0949 25.3156 14.0269C25.4029 14.0245 25.4902 14.022 25.5774 14.0194C26.0776 14.0048 26.5774 13.9902 27.0866 14.0089C27.7016 14.0179 28.2356 14.0559 28.9866 14.1589C30.3556 14.3469 31.3126 15.6099 31.1246 16.9779C30.9436 18.2969 29.7666 19.2339 28.4566 19.1329L28.2306 19.1149ZM75.1516 34.2331L75.1518 34.2333C75.311 34.3531 75.4613 34.4662 75.5939 34.5578L75.9109 34.7778C76.3449 35.0758 76.9209 35.1428 77.4319 34.9038C78.1989 34.5438 78.5299 33.6308 78.1699 32.8638C77.7989 32.0708 77.4159 31.5258 76.9419 30.9228C76.4709 30.3458 75.9229 29.8268 75.3219 29.3548C74.1049 28.4208 72.6519 27.7598 71.0739 27.4608C69.4989 27.1608 67.7849 27.2648 66.2629 27.8108C64.7239 28.3298 63.4249 29.2648 62.3939 30.3228C61.7669 30.9658 61.6329 31.9778 62.1289 32.7748C62.7129 33.7128 63.9459 33.9988 64.8839 33.4148L64.9939 33.3468C65.8869 32.7908 66.7609 32.3488 67.6369 32.1258C68.5109 31.8798 69.3859 31.8518 70.2919 31.9678C71.1909 32.1238 72.1249 32.4158 73.0069 32.8758C73.4559 33.0988 73.9009 33.3648 74.3399 33.6578C74.6089 33.8245 74.892 34.0377 75.1516 34.2331ZM15.3559 33.1489C14.7779 33.8689 14.2989 34.5439 13.8429 35.4509C13.5609 36.0129 13.6899 36.7149 14.1939 37.1339C14.7799 37.6229 15.6529 37.5439 16.1409 36.9569L16.2449 36.8319C16.6249 36.3769 17.1549 35.8029 17.6759 35.3659C18.2069 34.9119 18.7589 34.4969 19.3429 34.1719C20.5099 33.5159 21.7289 33.1369 22.9569 33.1219C23.2679 33.1219 23.5629 33.1339 23.8859 33.1719C24.0074 33.1897 24.1309 33.2013 24.2541 33.2129C24.4637 33.2326 24.6724 33.2522 24.8689 33.3019C25.5169 33.3989 26.1039 33.6059 26.6549 33.8319C27.2089 34.0499 27.6909 34.3549 28.1089 34.6979L28.1793 34.7601C28.3569 34.9166 28.5327 35.0714 28.6749 35.2419C28.7544 35.3279 28.821 35.4172 28.8844 35.5021L28.8999 35.5229L28.9889 35.6479C28.9955 35.6549 29.0061 35.6721 29.0147 35.686C29.0293 35.7099 29.038 35.724 29.0109 35.6609C29.5219 36.8059 30.8639 37.3199 32.0099 36.8089C33.1549 36.2979 33.6679 34.9559 33.1569 33.8109C33.0454 33.569 32.9922 33.4763 32.9243 33.3582L32.9243 33.3582L32.8909 33.2999C32.8277 33.1864 32.7665 33.0933 32.7026 32.9962L32.7026 32.9961L32.6807 32.9629L32.6539 32.9219C32.4899 32.6889 32.3219 32.4649 32.1429 32.2599C31.7879 31.8419 31.4029 31.4719 30.9899 31.1399C30.1599 30.4899 29.2469 29.9779 28.3059 29.6319C27.3619 29.3069 26.4009 29.0749 25.4599 28.9929C25.1383 28.9442 24.8236 28.9348 24.5093 28.9255C24.3593 28.9211 24.2094 28.9166 24.0589 28.9079C23.5839 28.9009 23.0799 28.9419 22.5939 29.0009C20.6349 29.2639 18.7769 30.0669 17.3229 31.2359C16.5879 31.8099 15.9319 32.4529 15.3559 33.1489ZM62.3409 14.7222C61.7589 14.8522 61.2579 14.9932 60.5749 15.2282C59.3989 15.6382 58.7229 16.9002 59.0639 18.1152C59.4179 19.3782 60.7289 20.1162 61.9929 19.7612L62.1749 19.7102C62.4729 19.6262 62.9709 19.5002 63.3969 19.4102C63.8399 19.3092 64.2949 19.2352 64.7519 19.1652L66.1299 18.9912L67.5179 18.9022C69.3719 18.8482 71.2289 18.9972 73.0269 19.4162C74.8229 19.8362 76.5779 20.4692 78.2249 21.3712C79.7834 22.1207 81.1811 23.1734 82.6181 24.2557L82.6202 24.2573C82.7527 24.3571 82.8856 24.4571 83.0189 24.5572L83.1219 24.6352C83.6039 24.9972 84.2849 25.0072 84.7829 24.6202C85.3809 24.1562 85.4889 23.2962 85.0239 22.6992C84.6889 22.2682 84.3369 21.8462 83.9819 21.4242C83.8828 21.3106 83.7865 21.1938 83.6901 21.0769L83.6897 21.0764C83.4332 20.7652 83.1758 20.453 82.8619 20.1972C82.693 20.0451 82.5254 19.8905 82.3574 19.7354C81.7047 19.133 81.046 18.5252 80.2849 18.0432C78.4679 16.6972 76.3519 15.7482 74.1699 15.1012C71.9859 14.4432 69.6999 14.0942 67.4269 14.1352C66.2909 14.1592 65.1539 14.2112 64.0279 14.3992C63.4659 14.4912 62.9029 14.5892 62.3409 14.7222ZM49.8507 33.5661C49.9857 35.7441 50.2307 37.9171 50.7947 39.7871C50.9457 40.2411 51.1127 40.6851 51.3017 41.0401C51.4857 41.3961 51.7177 41.6741 51.8387 41.7411C52.0857 41.9211 52.5727 42.2431 53.0317 42.5291C53.5057 42.8291 54.0127 43.1521 54.5267 43.5211C55.5277 44.2751 56.6517 45.2241 57.3767 46.7691C57.6997 47.5551 57.9277 48.3791 57.8467 49.4021C57.7707 50.4071 57.2947 51.3651 56.7367 51.9991C55.6067 53.2931 54.3797 53.8321 53.2447 54.3281C52.0907 54.7841 50.9707 55.1141 49.8537 55.3671C49.0097 55.5591 48.1707 55.0301 47.9797 54.1861C47.8167 53.4661 48.1767 52.7511 48.8097 52.4371L48.8177 52.4331C49.1421 52.272 49.4659 52.1169 49.7854 51.9638L49.7855 51.9638C50.4477 51.6465 51.0914 51.338 51.6837 51.0041C52.5557 50.5381 53.3537 49.9641 53.6657 49.5191C53.8213 49.2918 53.8326 49.1817 53.8446 49.0661L53.8447 49.0651C53.8567 48.9661 53.7887 48.6711 53.6807 48.4311C53.4677 47.9181 52.8827 47.2931 52.1167 46.6951C51.7357 46.3871 51.3147 46.0811 50.8587 45.7541C50.7412 45.6669 50.624 45.5836 50.5047 45.499C50.1511 45.2479 49.7799 44.9844 49.3327 44.5671C48.6197 43.8781 48.2727 43.1671 47.9977 42.5051C47.7217 41.8371 47.5877 41.1951 47.4717 40.5621C47.0527 38.0461 47.2987 35.6771 47.7847 33.3941C47.9047 32.8291 48.4597 32.4691 49.0237 32.5891C49.4937 32.6891 49.8217 33.0891 49.8497 33.5451L49.8507 33.5661ZM34.3663 68.3769C39.5273 71.3069 60.7703 70.7559 67.5133 66.4909C68.1083 64.4579 67.3563 63.5219 67.3563 63.5219C67.3563 63.5219 47.4373 66.4319 34.3803 64.8919C34.3803 64.8919 33.9463 67.5379 34.3663 68.3769ZM68.0263 60.2979C69.4483 60.0149 70.7503 60.5149 71.5093 61.6299C74.5893 68.6889 64.8293 80.1889 50.8123 80.1239C41.4983 80.6109 30.2033 74.9489 29.7223 68.5269C29.2853 65.7529 31.7743 61.0039 35.6163 61.7009C38.3533 62.1969 44.8963 62.3799 51.2903 62.1519C59.6542 61.8579 67.6242 60.3728 68.0121 60.3005C68.02 60.2991 68.0247 60.2982 68.0263 60.2979Z" fill="#141414"/></g></g><g id="Accessories" transform="translate(491 176) scale(103 60)"><g id="Accessories/None" stroke="none" stroke-width="1" fill="none" fill-rule="evenodd" fill-opacity="0"/></g><g id="Facial Hair" transform="translate(501 234) scale(90 60)"><g id="Facial Hair/None" stroke="none" stroke-width="1" fill="none" fill-rule="evenodd" fill-opacity="0"/></g></g></g><g id="Chat Window"><g id="Border Box"><g id="mask"><path id="Path" fill-rule="evenodd" clip-rule="evenodd" d="M408.885 733.94C395.163 733.94 384 722.776 384 709.054V136.819C384 123.097 395.163 111.933 408.885 111.933H966.746C980.468 111.933 991.632 123.097 991.632 136.819V709.054C991.632 722.776 980.468 733.94 966.746 733.94H408.885Z" fill="white"/><mask id="mask0d510cea6-9cf5-4604-8ae1-40f06b28d3b8" mask-type="alpha" maskUnits="userSpaceOnUse" x="384" y="111" width="608" height="623" fill="#ffffff"><path id="Path_2" fill-rule="evenodd" clip-rule="evenodd" d="M408.885 733.94C395.163 733.94 384 722.776 384 709.054V136.819C384 123.097 395.163 111.933 408.885 111.933H966.746C980.468 111.933 991.632 123.097 991.632 136.819V709.054C991.632 722.776 980.468 733.94 966.746 733.94H408.885Z" fill="#ffffff"/></mask><g mask="url(#mask0d510cea6-9cf5-4604-8ae1-40f06b28d3b8)"><g id="Master/Character/Standing" transform="translate(84 67.6021) scale(1 1)"><g id="Master/Character/Standing"><g id="Lower Body" transform="translate(0 569) scale(1 1)"><g id="Lower Body/Walking"><g id="Assets 66"><path id="SKIN" fill-rule="evenodd" clip-rule="evenodd" d="M272.021 457.914L182.115 552.316L232.642 597.972L326.544 531.419" fill="white"/><path id="Fill 2" fill-rule="evenodd" clip-rule="evenodd" d="M232.643 600.098C232.13 600.098 231.62 599.912 231.217 599.549L180.689 553.894C180.264 553.509 180.012 552.969 179.99 552.396C179.969 551.823 180.18 551.265 180.575 550.849L270.481 456.447C271.291 455.597 272.637 455.564 273.488 456.373C274.339 457.184 274.372 458.53 273.561 459.38L185.161 552.202L232.804 595.25L325.315 529.683C326.272 529.004 327.6 529.23 328.28 530.189C328.959 531.147 328.733 532.474 327.774 533.154L233.872 599.706C233.502 599.968 233.072 600.098 232.643 600.098" fill="#141414"/><path id="Fill 4" fill-rule="evenodd" clip-rule="evenodd" d="M197.329 529.054C198.329 528.739 199.402 529.251 199.788 530.227C200.156 531.158 200.606 532.341 201.137 533.737C204.389 542.285 211.155 560.074 220.454 575.147C220.462 575.16 220.47 575.172 220.478 575.186C225.963 584.061 233.215 590.365 240.9 592.938C241.511 593.142 241.984 593.628 242.177 594.245C251.427 624.263 258.109 645.951 257.433 665.504C257.314 668.941 255.653 682.094 249.704 683.674C246.954 684.404 244.234 682.63 241.621 678.403C232.082 662.968 211.443 629.77 193.234 600.48C178.5 576.78 165.776 556.312 161.005 548.593C160.501 547.778 160.416 546.813 160.765 545.876C162.796 540.421 187.012 532.294 197.329 529.054" fill="#ffc81a"/><path id="Fill 6" fill-rule="evenodd" clip-rule="evenodd" d="M153.706 553.535L236.163 686.946C237.534 689.163 240.441 689.849 242.659 688.478L243.985 687.659C246.203 686.288 246.889 683.381 245.519 681.163L163.061 547.753C161.691 545.535 158.783 544.848 156.566 546.22L155.239 547.039C153.022 548.41 152.335 551.317 153.706 553.535" fill="#141414"/><path id="Fill 9" fill-rule="evenodd" clip-rule="evenodd" d="M242.526 630.65C242.944 631.327 243.725 631.74 244.568 631.647C252.283 630.801 254.195 637.156 254.386 637.884C254.686 639.014 255.843 639.698 256.975 639.407C258.108 639.114 258.794 637.968 258.508 636.835C257.579 633.134 253.369 626.404 244.104 627.42C242.937 627.547 242.094 628.597 242.222 629.764C242.257 630.089 242.365 630.389 242.526 630.65" fill="#141414"/><path id="Fill 11" fill-rule="evenodd" clip-rule="evenodd" d="M237.009 611.982C237.427 612.658 238.208 613.071 239.051 612.978C246.767 612.132 248.678 618.488 248.869 619.215C249.168 620.346 250.326 621.03 251.458 620.738C252.591 620.445 253.276 619.299 252.991 618.166C252.059 614.463 247.849 607.735 238.587 608.751C237.42 608.878 236.577 609.929 236.705 611.096C236.741 611.421 236.848 611.72 237.009 611.982" fill="#141414"/></g><g id="Assets 67"><path id="SKIN_2" fill-rule="evenodd" clip-rule="evenodd" d="M618.186 601.399L637.007 685.944L711.544 693.712L701.536 585.118L618.186 601.399Z" fill="white"/><path id="Fill 15" fill-rule="evenodd" clip-rule="evenodd" d="M712.873 696.541C712.804 696.541 712.734 696.537 712.665 696.53L636.645 688.674C635.673 688.578 634.891 687.832 634.749 686.865L616.581 601.044C616.411 599.882 617.216 598.802 618.378 598.632C619.542 598.469 620.619 599.268 620.79 600.429L638.717 684.603L710.156 692.011L700.119 591.232C699.862 590.086 700.584 588.949 701.729 588.692C702.88 588.435 704.014 589.158 704.269 590.303L714.948 693.949C715.098 694.615 714.918 695.312 714.466 695.823C714.06 696.281 713.479 696.541 712.873 696.541" fill="#141414"/><path id="Fill 17" fill-rule="evenodd" clip-rule="evenodd" d="M630.45 679.86C630.708 678.843 631.708 678.2 632.741 678.384C633.725 678.561 634.969 678.8 636.435 679.083C645.416 680.811 664.105 684.408 681.816 684.422H681.862C692.295 684.422 701.471 681.568 707.7 676.383C708.194 675.971 708.857 675.825 709.483 675.985C739.88 683.899 761.843 689.617 778.119 700.472C780.98 702.381 791.296 710.709 789.512 716.599C788.686 719.323 785.748 720.704 780.779 720.704C762.634 720.704 723.543 720.805 689.054 720.895C661.148 720.968 637.047 721.031 627.973 721.031C627.015 721.031 626.149 720.596 625.536 719.807C621.963 715.211 627.782 690.339 630.45 679.86" fill="#ffc81a"/><path id="Fill 19" fill-rule="evenodd" clip-rule="evenodd" d="M628.338 729.838H785.175C787.781 729.838 789.894 727.726 789.894 725.119V723.559C789.894 720.953 787.781 718.84 785.175 718.84H628.338C625.732 718.84 623.619 720.953 623.619 723.559V725.119C623.619 727.726 625.732 729.838 628.338 729.838" fill="#141414"/><path id="Fill 21" fill-rule="evenodd" clip-rule="evenodd" d="M740.633 694.828C741.428 694.828 742.19 694.381 742.554 693.615C745.891 686.607 752.302 688.322 753.023 688.543C754.141 688.882 755.331 688.257 755.678 687.141C756.025 686.023 755.411 684.838 754.296 684.484C750.66 683.33 742.722 683.372 738.715 691.787C738.21 692.848 738.66 694.116 739.72 694.621C740.015 694.762 740.326 694.828 740.633 694.828" fill="#141414"/><path id="Fill 23" fill-rule="evenodd" clip-rule="evenodd" d="M721.854 689.706C722.649 689.706 723.411 689.259 723.775 688.493C727.113 681.485 733.524 683.2 734.243 683.421C735.362 683.761 736.552 683.135 736.899 682.019C737.246 680.901 736.631 679.716 735.517 679.362C731.877 678.209 723.941 678.252 719.936 686.665C719.431 687.726 719.881 688.994 720.941 689.499C721.236 689.64 721.547 689.706 721.854 689.706" fill="#141414"/></g><g id="Pant"><path id="Fill 25" fill-rule="evenodd" clip-rule="evenodd" d="M434.653 1.0002C434.653 1.0002 423.43 57.9922 417.887 98.0012C412.344 138.01 401.423 175.097 385.554 210.57C344.837 301.584 220.293 430.919 220.293 430.919C220.293 430.919 259.973 503.376 346.035 573.426C536 420 561 180 561 180C572.975 310.532 576.888 420.062 569.161 607.409C636.124 609.486 694.1 606.528 748.41 581.809C756.198 581.915 724.413 191.317 651 0L434.653 1.0002Z" fill="#0B379B"/><g id="Combined Shape"><path fill-rule="evenodd" clip-rule="evenodd" d="M523.854 31.8088C524.029 30.6468 525.12 29.8488 526.274 30.0238C527.435 30.1998 528.235 31.2828 528.059 32.4438C527.96 33.1068 525.527 48.8818 518.522 65.1648C509.109 87.0468 495.855 99.1008 480.181 100.058C480.103 100.463 480.026 100.869 479.949 101.274C479.746 102.345 479.542 103.415 479.332 104.485C475.304 125.223 470.573 145.815 465.214 166.24L463.175 173.891C462.71 175.53 462.219 177.165 461.727 178.801C461.455 179.708 461.183 180.615 460.915 181.522L459.775 185.336L459.73 185.486C459.369 186.709 459.009 187.931 458.566 189.126L455.943 196.634L454.632 200.388C454.341 201.196 454.022 201.993 453.703 202.791C453.53 203.223 453.357 203.655 453.189 204.089L450.264 211.477C449.475 213.561 448.577 215.597 447.68 217.634C447.51 218.019 447.34 218.404 447.171 218.79L443.98 226.059C435.24 245.34 425.136 263.947 414.267 282.056C392.531 318.292 367.892 352.672 341.69 385.738C328.584 402.274 315.066 418.478 301.169 434.351C294.244 442.308 287.249 450.204 280.13 457.992C273.013 465.789 265.834 473.496 258.431 481.074C257.66 481.865 256.393 481.88 255.603 481.108C254.812 480.336 254.798 479.07 255.57 478.28L255.572 478.277L255.597 478.252C285.008 448.257 312.742 416.461 338.888 383.516C351.961 367.033 364.625 350.226 376.738 333.034C388.834 315.833 400.449 298.286 411.148 280.197C421.847 262.115 431.766 243.563 440.306 224.403L443.419 217.183C443.583 216.801 443.749 216.42 443.914 216.038C444.792 214.016 445.669 211.992 446.435 209.926L449.281 202.603C449.445 202.172 449.614 201.742 449.783 201.313C450.093 200.524 450.403 199.734 450.685 198.936L451.955 195.222L454.498 187.797C454.919 186.634 455.262 185.448 455.605 184.262L455.665 184.054L456.763 180.29C457.018 179.404 457.278 178.52 457.537 177.636C458.014 176.014 458.49 174.391 458.943 172.757L460.925 165.127C468.125 136.987 474.155 108.513 478.593 79.8278C478.769 78.8475 478.782 78.6845 478.799 78.4711C478.82 78.2094 478.847 77.8717 479.189 75.8558C480.91 64.3518 482.378 52.8158 483.552 41.2528L483.554 41.2408C483.711 39.6938 485.092 38.5668 486.639 38.7238C488.187 38.8808 489.314 40.2628 489.156 41.8098C489.156 41.8148 489.154 41.8358 489.154 41.8408C487.118 59.9178 484.328 77.8758 481.003 95.7248C514.293 92.4308 523.76 32.4228 523.854 31.8088ZM578.081 130.328C578.659 131.407 592.408 157.572 605.655 229.17C617.844 295.056 631.782 413.504 628.95 603.636C628.933 604.73 628.041 605.606 626.951 605.606H626.921C625.816 605.589 624.933 604.681 624.95 603.576C627.772 414.093 613.922 296.03 601.805 230.354C588.675 159.175 574.695 132.479 574.555 132.217C574.035 131.244 574.401 130.032 575.375 129.511C576.345 128.99 577.557 129.356 578.081 130.328Z" fill="white" fill-opacity="0.5" style="mix-blend-mode:soft-light"/></g></g></g></g><g id="Upper Body" transform="translate(272 187) scale(1 1)"><g id="Upper Body/Pointing"><g id="hand 2"><path id="SKIN" fill-rule="evenodd" clip-rule="evenodd" d="M582.771 168.381C582.771 168.381 597.653 163.709 596.811 156.713C596.03 150.22 585.705 152.97 577.229 154.627C577.229 154.627 591.263 145.23 584.803 139.209C578.411 133.249 552.726 145.557 542.057 150.575C551.437 141.596 552.987 127.442 546.223 129.206C541.163 130.526 517.919 145.489 486.933 162.706C480.595 165.77 453.278 178.392 432.655 178.803C392.07 179.613 386.292 162.676 383.311 161.164C377.443 168.747 362.551 184.129 357.223 231.345C391.901 252.202 426.323 253.879 464.625 243.41C465.177 243.427 465.653 243.381 466.042 243.272C509.57 230.975 555.574 204.853 574.692 197.979C592.026 191.746 588.467 184.151 582.181 183.381C582.181 183.381 596.664 180.173 596.142 173.402C595.816 169.173 593.174 167.636 582.771 168.381" fill="white"/><path id="Fill 3" fill-rule="evenodd" clip-rule="evenodd" d="M581.718 181.306C581.702 181.314 567.318 184.682 567.3 184.687C565.446 185.095 565.997 187.983 567.873 187.678L582.155 185.534C588.711 187.26 584.402 192.101 573.97 195.979C568.977 196.724 547.53 206.202 526.863 216.663C526.843 216.672 526.822 216.676 526.802 216.685L526.796 216.688C513.391 223.183 499.805 229.306 485.878 234.467C471.954 239.6 457.664 243.794 443.063 246.031C428.486 248.301 413.568 248.37 399.133 245.6C385.114 242.954 371.683 237.58 359.375 230.295C359.728 227.604 360.053 224.908 360.463 222.226L361.241 217.583L361.637 215.264L362.115 212.962L363.073 208.359L364.212 203.806C364.566 202.28 365.024 200.786 365.468 199.289C365.919 197.794 366.323 196.283 366.861 194.819C368.816 188.896 371.218 183.131 374.22 177.714C375.703 174.995 377.37 172.389 379.136 169.849C380.514 167.91 381.978 166.058 383.491 164.153L384.212 165.005C384.994 165.929 385.833 166.855 386.72 167.731C388.49 169.493 390.475 171.043 392.566 172.384C396.759 175.076 401.397 176.856 406.086 178.112C410.787 179.366 415.576 180.074 420.362 180.455C425.168 180.834 429.894 180.907 434.748 180.725C439.61 180.456 444.371 179.662 449.045 178.611C453.718 177.547 458.309 176.226 462.83 174.731C471.769 171.752 480.424 168.226 488.935 164.102C488.949 164.107 488.963 164.115 488.977 164.119C511.572 151.624 531.81 139.514 546.759 131.264C550.634 131.352 547.029 143.107 540.585 149.039C538.974 150.753 537.637 152.543 536.714 154.737C535.662 156.676 536.738 159.138 536.685 161.324C536.414 172.755 528.689 176.949 528.227 177.169C526.959 177.747 527.814 179.715 529.088 179.238C537.29 176.009 540.62 165.984 540.343 157.818C540.717 155.845 542.217 153.491 543.733 152.136C552.247 148.127 578.161 135.927 583.352 140.764C586.891 144.788 579.616 150.045 576.244 152.721L557.541 159.414C556.697 159.717 556.257 160.646 556.56 161.491C556.852 162.308 557.737 162.745 558.559 162.498C558.559 162.498 577.741 156.692 577.742 156.692C583.197 156.006 593.364 152.241 594.698 156.968C593.747 165.509 569.49 169.7 562.593 172.964C560.589 173.608 561.568 176.745 563.586 176.132L583.138 170.488C593.723 169.757 593.875 171.692 594.02 173.565C594.306 177.278 585.856 180.383 581.718 181.306M592.089 166.483C604.618 159.079 598.799 147.387 584.639 151.032C588.214 147.321 590.613 141.577 586.252 137.653C580.64 132.418 565.619 137.559 549.06 144.998C553.384 137.241 555.149 126.076 545.684 127.147C530.437 135.233 509.916 147.548 487.085 160.244C478.856 164.285 470.241 167.85 461.521 170.798C457.109 172.282 452.644 173.587 448.137 174.636C443.631 175.673 439.073 176.449 434.528 176.722C429.974 176.91 425.265 176.83 420.684 176.469C416.084 176.103 411.52 175.423 407.116 174.247C402.724 173.072 398.463 171.421 394.718 169.013C392.848 167.811 391.1 166.447 389.531 164.886C388.743 164.107 387.999 163.287 387.26 162.415L386.108 161.052C385.893 160.808 385.68 160.563 385.406 160.29C385.14 160.028 384.793 159.702 384.214 159.381C383.409 158.932 382.374 159.12 381.784 159.868L381.728 159.94C379.814 162.366 377.746 164.896 375.874 167.534C374.022 170.196 372.271 172.936 370.718 175.782C367.574 181.455 365.083 187.445 363.067 193.553C362.513 195.067 362.095 196.618 361.632 198.157C361.174 199.697 360.704 201.235 360.342 202.797L359.174 207.466L358.195 212.17L357.706 214.522L357.302 216.888L356.509 221.62C356.027 224.78 355.663 227.954 355.235 231.12V231.121C355.14 231.864 355.478 232.629 356.159 233.04L356.192 233.06C369.142 240.882 383.441 246.692 398.388 249.502C413.324 252.361 428.731 252.266 443.657 249.931C458.615 247.63 473.145 243.346 487.238 238.141C501.334 232.908 515.022 226.726 528.499 220.186C528.518 220.177 528.531 220.164 528.549 220.155C543.026 212.743 558.674 205.998 575.411 199.98C589.636 194.447 591.574 189.173 587.867 183.876C592.602 182.085 598.682 178.704 598.26 173.238C597.948 169.199 595.8 167.247 592.089 166.483" fill="#141414"/></g><g id="T Shirt"><path id="Fill 5" fill-rule="evenodd" clip-rule="evenodd" d="M397.321 160.957C366.278 141.132 343.018 115.028 343.018 115.028C342.884 114.878 342.76 114.72 342.627 114.566C307.921 74.6227 215.01 77.4377 169.809 115.706C93.2523 180.522 155.646 391.652 155.646 391.652H391.802C391.802 391.652 384.705 321.931 378.395 262.523C376.699 246.547 375.254 232.16 373.816 219.096C381.627 203.394 390.869 182.586 397.321 160.957Z" fill="#ffc81a"/><path id="Fill 7" fill-rule="evenodd" clip-rule="evenodd" d="M356.199 131.095C365.793 140.077 379.405 151.727 394.97 161.823C389.428 180.015 381.909 197.634 375.03 211.997C370.938 176.333 366.516 151.016 356.199 131.095ZM157.124 389.651C154.553 381.126 142.104 324.886 136.499 272.71C132.879 239.008 133.192 209.47 137.429 184.915C142.683 154.472 154.011 131.7 171.1 117.232C192.255 99.3221 225.557 88.3221 260.183 87.8061C295.141 87.3031 325.392 97.7801 341.116 115.877C363.843 142.035 367.62 178.361 374.475 244.307C375.09 250.208 375.727 256.346 376.405 262.734C381.97 315.13 388.644 378.384 389.622 389.651H157.124ZM346.411 115.985C345.673 115.064 344.917 114.153 344.135 113.254C327.401 93.9941 296.8 83.2711 260.123 83.8071C224.601 84.3351 190.355 95.6901 168.515 114.18C150.685 129.276 138.898 152.855 133.483 184.264C129.184 209.194 128.863 239.116 132.529 273.199C138.757 331.111 153.578 391.748 153.738 392.252C154 393.085 154.772 393.651 155.645 393.651H391.801C392.361 393.651 392.896 393.416 393.274 393.004C393.653 392.592 393.842 392.039 393.795 391.481C393.743 390.884 386.623 321.06 380.384 262.311C379.705 255.927 379.067 249.792 378.454 243.893C377.554 235.241 376.708 227.103 375.863 219.414C383.678 203.647 392.851 182.934 399.237 161.529C399.492 160.673 399.149 159.752 398.396 159.271C373.29 143.237 352.843 122.789 346.411 115.985Z" fill="#141414"/></g><g id="Neck"><path id="SKIN_2" fill-rule="evenodd" clip-rule="evenodd" d="M292.134 62.9258C292.134 62.9258 295.507 92.8168 295.156 107.99C294.709 127.366 253.932 122.656 242.04 109.774C236.103 103.342 234.938 97.1998 238.658 90.5868C239.074 76.4498 238.082 59.8518 238.082 59.8518" fill="white"/><path id="Fill 12" fill-rule="evenodd" clip-rule="evenodd" d="M274.393 123.008C261.787 123.008 247.238 118.353 240.57 111.13C234.112 104.133 232.834 97.2323 236.672 90.0483C237.045 76.2683 236.095 60.1343 236.085 59.9713C236.019 58.8683 236.86 57.9213 237.963 57.8553C239.066 57.7803 240.013 58.6303 240.079 59.7333C240.088 59.8993 241.071 76.5823 240.657 90.6463C240.647 90.9693 240.56 91.2853 240.401 91.5673C237.142 97.3613 238.101 102.557 243.51 108.417C251.428 116.995 273.867 121.711 285.634 117.264C290.525 115.416 293.056 112.28 293.156 107.943C293.499 93.0813 290.18 63.4473 290.146 63.1503C290.022 62.0523 290.812 61.0623 291.91 60.9383C293.013 60.8133 293.997 61.6043 294.121 62.7013C294.259 63.9273 297.505 92.9013 297.155 108.036C297.016 114.076 293.52 118.561 287.047 121.006C283.422 122.375 279.039 123.008 274.393 123.008" fill="#141414"/></g><g id="hand"><path id="SKIN_3" fill-rule="evenodd" clip-rule="evenodd" d="M449.022 296.041C447.129 290.658 433.554 288.137 422.793 285.471C422.682 285.234 422.583 284.99 422.467 284.755C416.759 273.126 353.398 274.083 300.027 275.618C266.427 275.163 229.083 269.599 224.1 262.052C219.969 255.797 218.44 246.152 217.878 239.432C178.154 245.053 149.997 245.45 132.477 245.605C134.236 260.858 138.829 287.781 162.945 314.722C184.562 338.87 247.536 345.547 306.116 338.933L306.209 339.507C334.392 334.714 359.262 330.599 369.737 332.073C382.807 333.913 386.455 328.746 394.387 325.709C395.355 335.716 401.974 340.824 405.545 331.776C409.84 334.442 413.705 334.193 415.89 326.605C420.767 328.15 426.028 324.947 427.205 318.884C427.913 315.235 428.165 309.265 427.411 302.706C441.37 303.678 451.119 302.006 449.022 296.041" fill="white"/><path id="Fill 16" fill-rule="evenodd" clip-rule="evenodd" d="M446.919 298.302C445.611 299.954 440.291 301.299 429.307 300.686C428.751 296.694 427.802 292.526 426.35 288.527C434.368 290.681 448.403 293.067 446.919 298.302M425.117 318.481C424.197 322.349 421.824 326.269 418.324 325.846C419.334 317.555 417.907 309.199 415.537 301.314C415.159 300.025 413.124 300.461 413.308 301.795C414.809 308.921 415.557 316.297 414.707 323.489C414.315 325.867 413.969 328.383 412.137 330.031C411.048 330.965 409.675 331.704 408.779 330.502C407.757 327.387 407.969 321.381 406.363 316.075C405.763 314.091 404.415 307.309 401.749 307.924C401.024 308.19 400.654 308.988 400.919 309.702C403.212 315.885 403.819 322.727 403.979 329.31C403.358 331.871 402.346 335.747 399.129 334.344C396.151 331.171 397.281 325.453 394.933 321.665C393.936 319.882 390.987 314.447 388.399 316.828C387.852 317.567 388.003 318.607 388.731 319.156C390.375 320.346 391.569 322.544 392.206 324.611C385.757 327.856 379.3 331.27 370.026 329.963C357.619 329.194 336.289 332.238 312.554 336.126C283.545 339.944 253.942 340.405 228.239 337.36C197.251 333.69 175.187 325.4 164.434 313.387C140.98 287.186 136.288 260.886 134.517 245.838C137.553 246.257 141.976 246.451 147.292 246.451C166.562 246.451 197.47 243.906 215.942 240.337C216.569 247.227 218.199 256.747 222.429 263.154C229.441 273.772 283.483 278.768 316.157 277.413C316.313 277.407 316.462 277.379 316.606 277.339C349.293 276.447 385.879 275.914 410.419 280.808C417.54 282.475 419.891 284.336 420.552 285.689C425.201 294.932 426.759 309.234 425.117 318.481M451.023 295.337C449.236 289.125 435.13 286.235 424.76 283.758C424.599 283.72 424.696 283.754 424.28 283.643C423.293 280.948 420.413 278.427 413.273 276.841C392.383 272.202 345.278 272.823 302.586 273.65C267.654 273.481 230.162 267.605 225.767 260.949C221.725 254.827 220.312 245.044 219.819 238.519C219.925 238.196 219.958 237.844 219.883 237.486C219.654 236.406 218.592 235.715 217.513 235.942C192.142 241.301 141.798 244.067 132.953 241.468C131.892 241.155 130.781 241.763 130.471 242.823C130.369 243.17 130.374 243.52 130.452 243.848C130.362 244.114 130.327 244.404 130.36 244.704C132.044 259.868 136.317 287.974 161.453 316.055C178.583 335.192 219.748 343.331 263.808 343.33C283.484 343.33 303.743 341.706 322.689 338.713C322.758 338.702 322.82 338.678 322.886 338.661C323.1 338.632 323.314 338.609 323.526 338.576C342.397 335.714 359.38 333.445 369.44 334.178C379.482 335.597 386.731 332.145 393.09 328.917C393.465 332.151 393.711 335.646 396.619 337.949C400.257 340.529 405.53 338.752 407.037 334.732C411.11 337.07 415.813 333.689 417.273 329.955C429.633 331.025 430.66 315.796 429.776 304.981C437.768 305.13 453.648 305.942 451.023 295.337" fill="#141414"/><path id="Fill 18" fill-rule="evenodd" clip-rule="evenodd" d="M227.51 235.811C225.903 226.842 224.287 217.907 223.171 208.927C222.616 204.439 222.182 199.941 221.999 195.449C221.824 190.96 221.884 186.462 222.506 182.078L222.509 182.057C222.611 181.335 222.119 180.661 221.396 180.541C220.663 180.419 219.969 180.915 219.847 181.648C219.077 186.274 218.912 190.922 218.981 195.533C219.058 200.146 219.391 204.734 219.845 209.299C220.698 217.813 221.986 226.249 223.284 234.648C223.26 234.654 223.237 234.66 223.213 234.665L221.364 235.09L217.634 235.901L217.61 235.906C216.531 236.141 215.846 237.206 216.081 238.285C216.316 239.365 217.381 240.049 218.46 239.815L222.239 238.993L224.135 238.558C224.774 238.405 225.4 238.255 226.089 238.062L226.121 238.053C227.078 237.775 227.69 236.813 227.51 235.811" fill="#141414"/></g><path id="Fill 20" fill-rule="evenodd" clip-rule="evenodd" d="M269.975 164.654H302.185L294.258 196.009L314.992 196.33L284.687 258.813L285.906 216.75L266.461 215.992L269.975 164.654Z" fill="#FFC81A"/></g></g><g id="Head" transform="translate(439 92) scale(1 1)"><g id="Head/Short Hair 4"><g id="Short Hair"><path id="SKIN" fill-rule="evenodd" clip-rule="evenodd" d="M152.657 90.1809C145.373 45.6369 123.61 44.3309 82.9817 47.3839C63.9047 48.8169 40.0927 66.0939 42.2237 97.4009C31.0747 93.1319 24.8227 100.16 25.1997 108.558C25.5397 116.098 28.9517 126.031 42.8227 126.031C44.1667 149.026 59.1767 186.07 106.318 186.07C154.452 186.07 158.973 128.808 152.657 90.1809" fill="white"/><path id="hair" fill-rule="evenodd" clip-rule="evenodd" d="M138.121 170.34C118.077 194.314 72.5216 184.62 57.2356 161.175C49.0796 151.308 44.8676 132.557 44.8196 125.914C44.8126 124.854 43.8816 124.03 42.8226 124.03C27.8566 124.935 22.8666 106.491 30.8506 99.6315C34.5986 96.8085 39.7466 97.7555 43.5586 99.9375C44.1256 100.262 59.2616 99.0255 68.9366 70.0025C87.7926 80.9795 123.159 86.3555 147.697 77.2195C155.497 106.091 156.337 148.278 138.121 170.34M184.717 29.2635C180.871 5.2195 152.544 2.2375 130.5 12.4815C110.583 -11.0815 56.3156 -2.9285 46.9716 30.4715C39.4566 29.0205 31.4976 30.7915 24.3566 35.5425C-14.8494 63.6145 11.7436 122.486 28.2246 130.587C32.4816 144.17 37.8976 152.043 48.7036 154.779C59.0946 182.991 115.317 203.848 141.171 172.93C160.649 149.336 159.705 106.035 151.378 75.6645C170.34 66.3325 186.977 49.3175 184.717 29.2635M36.7832 106.032C33.8272 105.929 33.8272 114.161 36.7832 114.058C39.7392 114.161 39.7392 105.928 36.7832 106.032" fill="#141414"/></g></g></g><g id="Face" transform="translate(499 178) scale(1 1)"><g id="Face/Grinning"><g id="grinning"><path id="face" fill-rule="evenodd" clip-rule="evenodd" d="M70.6572 13.1827C67.4944 12.5308 64.3252 11.8776 61.1045 12.8692C55.3895 11.1662 65.1065 7.43218 67.3785 8.07318C70.2865 7.40518 79.5305 11.7002 73.2735 13.6872C72.4012 13.5421 71.5295 13.3625 70.6572 13.1827ZM78.2569 27.629C82.4909 23.371 71.7619 18.207 68.0579 19.213C64.4589 19.335 56.6799 23.636 58.1689 27.599C58.7469 28.154 59.6659 28.137 60.2219 27.559C64.0379 22.72 72.0709 21.546 75.7659 26.983C76.3129 27.773 77.3679 28.066 78.2569 27.629ZM52.2144 40.8005C63.1074 44.9485 59.0084 57.4945 47.9304 56.2355C45.3594 56.2665 45.3464 52.2245 47.9124 52.2355C50.0754 52.1835 53.3144 51.9015 54.2664 50.0175C55.1331 46.9815 53.3318 46.0069 51.4877 45.0092C49.9849 44.1961 48.4536 43.3675 48.3144 41.3955C47.9124 39.5215 45.9714 18.9115 50.5804 25.7495C50.7067 27.1148 50.8067 28.4915 50.9069 29.8709V29.8709C51.1741 33.549 51.4428 37.2464 52.2144 40.8005ZM29.3635 32.0245C28.6765 31.2305 27.7095 30.6935 26.5635 30.5235C22.2194 29.9714 20.4519 32.9953 19.0497 35.3941C18.0465 37.1103 17.2303 38.5066 15.7915 38.0445C13.5987 36.7511 15.254 34.1465 16.4831 32.2126L16.4831 32.2126C16.7393 31.8094 16.977 31.4354 17.1575 31.1085C19.3685 28.0755 23.0895 25.9165 27.0185 26.2885C35.0425 26.9145 34.4645 34.8245 29.3635 32.0245ZM20.9268 17.044C21.4479 16.875 22.0847 16.8894 22.7267 16.9038C23.9006 16.9303 25.0917 16.9572 25.6238 15.864C25.3928 11.079 12.1038 13.267 9.65679 15.986C8.25179 17.074 9.27579 19.54 11.0728 19.244C12.5781 19.0282 14.059 18.6137 15.5425 18.1985L15.5425 18.1985C17.3181 17.7016 19.0974 17.2036 20.9268 17.044ZM68.809 73.8319C69.393 73.4209 69.947 72.9889 70.419 72.5069C73.718 68.7009 72.336 65.4609 67.147 66.6029C67.833 68.9829 68.379 71.3939 68.809 73.8319ZM62.78 76.7049C63.527 76.4559 64.268 76.1929 64.989 75.8969C65.745 75.5799 66.477 75.2189 67.185 74.8339C66.444 72.2039 65.857 69.5389 65.434 66.8389C63.973 67.0739 62.469 67.3689 60.985 67.6869C61.1842 68.4777 61.4451 69.2861 61.7091 70.1043C62.4126 72.2844 63.1385 74.5337 62.78 76.7049ZM44.95 79.2069C47.159 79.2329 49.374 79.1409 51.572 78.9509C51.8318 78.9255 52.0928 78.8958 52.3531 78.8661C52.4215 78.8584 52.4898 78.8506 52.558 78.8429C51.357 76.0159 51.111 72.6759 51.345 69.6249C49.296 69.9759 47.223 70.2769 45.141 70.4559C45.252 73.3769 45.26 76.2979 44.95 79.2069ZM37.442 70.5189C37.586 70.6949 36.808 78.2129 36.698 78.4819C38.759 78.8539 40.843 79.0539 42.943 79.1529C42.838 76.2889 43.05 73.4359 43.353 70.5889C41.399 70.7019 39.422 70.6969 37.442 70.5189ZM27.315 68.7919C25.53 70.6789 25.746 74.2899 28.207 75.5929C29.821 76.6959 31.863 77.3689 33.797 77.8679C33.8142 77.8186 33.8793 77.1022 33.9682 76.1238C34.1716 73.8848 34.4997 70.2735 34.6643 70.1417C34.6699 70.1415 34.6754 70.1412 34.681 70.1409C34.6756 70.1368 34.6701 70.1371 34.6643 70.1417C33.7366 70.1858 32.5825 69.7182 31.4396 69.2552C29.8143 68.5967 28.2117 67.9473 27.315 68.7919ZM54.0139 74.5885C54.0446 75.2468 54.0751 75.9016 54.139 76.5409C54.1355 76.7181 54.1441 76.894 54.1528 77.0699C54.1786 77.595 54.2044 78.1201 53.907 78.6789C56.246 78.3699 58.565 77.9269 60.807 77.3069C59.3388 75.7116 59.0629 73.3112 58.7983 71.0091C58.688 70.0498 58.5798 69.1076 58.388 68.2479C56.628 68.6249 54.85 68.9839 53.055 69.3169C53.8436 70.9353 53.9294 72.7754 54.0139 74.5885ZM54.4814 64.788C62.3454 63.0286 69.7569 61.3704 74.391 64.3989C87.643 88.2899 2.60299 87.6909 27.085 65.0299C28.6115 64.483 30.069 65.0657 31.4619 65.6225C31.5107 65.642 31.5594 65.6615 31.608 65.6809C38.0862 68.456 46.5159 66.5701 54.4814 64.788Z" fill="#141414"/><path id="dots" fill-rule="evenodd" clip-rule="evenodd" d="M70.0977 34.2286C68.6007 34.2416 68.6217 36.5646 70.1177 36.5516C71.6157 36.5396 71.5927 34.2156 70.0977 34.2286ZM31.3145 43.7022C33.3295 42.7622 31.8725 39.6282 29.8535 40.5692C27.8375 41.5102 29.2945 44.6432 31.3145 43.7022ZM23.5801 45.4024C25.0581 44.7134 23.9891 42.4154 22.5091 43.1054C21.0301 43.7954 22.0991 46.0924 23.5801 45.4024ZM26.7139 50.2315C24.2739 51.3705 26.0379 55.1655 28.4839 54.0245C30.9239 52.8865 29.1589 49.0905 26.7139 50.2315ZM19.0088 51.3682C17.6668 48.1582 13.3718 53.1872 17.2638 53.8472C18.8638 54.4342 19.8498 52.6372 19.0088 51.3682ZM69.461 45.6202C71.935 45.5992 71.898 41.7632 69.429 41.7832C66.956 41.8052 66.992 45.6412 69.461 45.6202ZM76.253 39.6846C76.059 41.0656 77.582 42.1646 78.675 41.0466C81.635 38.9666 76.097 36.4986 76.253 39.6846ZM63.0196 35.0274C60.9776 35.0454 61.0076 38.2134 63.0456 38.1954C65.0886 38.1784 65.0586 35.0104 63.0196 35.0274Z" fill="#FF4B33"/></g></g></g><g id="Accessories" transform="translate(491 176) scale(103 60)"><g id="Accessories/None" stroke="none" stroke-width="1" fill="none" fill-rule="evenodd" fill-opacity="0"/></g><g id="Facial Hair" transform="translate(501 234) scale(90 60)"><g id="Facial Hair/None" stroke="none" stroke-width="1" fill="none" fill-rule="evenodd" fill-opacity="0"/></g></g></g></g></g><path id="Fill 1" fill-rule="evenodd" clip-rule="evenodd" d="M408.885 115.933C397.369 115.933 388 125.302 388 136.819V709.054C388 720.571 397.369 729.94 408.885 729.94H966.746C978.262 729.94 987.632 720.571 987.632 709.054V136.819C987.632 125.302 978.262 115.933 966.746 115.933H408.885ZM408.885 733.94C395.163 733.94 384 722.776 384 709.054V136.819C384 123.097 395.163 111.933 408.885 111.933H966.746C980.468 111.933 991.632 123.097 991.632 136.819V709.054C991.632 722.776 980.468 733.94 966.746 733.94H408.885Z" fill="#141414"/><path id="Fill 18" fill-rule="evenodd" clip-rule="evenodd" d="M988.699 193.553H386.006C384.902 193.553 384.006 192.657 384.006 191.553C384.006 190.449 384.902 189.553 386.006 189.553H988.699C989.803 189.553 990.699 190.449 990.699 191.553C990.699 192.657 989.803 193.553 988.699 193.553" fill="#141414"/></g><g id="Button"><path id="Fill 8" fill-rule="evenodd" clip-rule="evenodd" d="M465.207 143.288C460.18 143.288 456.09 147.378 456.09 152.405C456.09 157.433 460.18 161.522 465.207 161.522C470.234 161.522 474.324 157.433 474.324 152.405C474.324 147.378 470.234 143.288 465.207 143.288M465.207 165.522C457.974 165.522 452.09 159.638 452.09 152.405C452.09 145.172 457.974 139.288 465.207 139.288C472.44 139.288 478.324 145.172 478.324 152.405C478.324 159.638 472.44 165.522 465.207 165.522" fill="#141414"/><path id="Fill 14" fill-rule="evenodd" clip-rule="evenodd" d="M503.054 143.288C498.027 143.288 493.936 147.378 493.936 152.405C493.936 157.433 498.027 161.522 503.054 161.522C508.081 161.522 512.171 157.433 512.171 152.405C512.171 147.378 508.081 143.288 503.054 143.288M503.054 165.522C495.821 165.522 489.936 159.638 489.936 152.405C489.936 145.172 495.821 139.288 503.054 139.288C510.287 139.288 516.171 145.172 516.171 152.405C516.171 159.638 510.287 165.522 503.054 165.522" fill="#141414"/><g id="Active"><path id="Fill 4" fill-rule="evenodd" clip-rule="evenodd" d="M438.476 152.405C438.476 158.545 433.498 163.522 427.359 163.522C421.219 163.522 416.242 158.545 416.242 152.405C416.242 146.265 421.219 141.288 427.359 141.288C433.498 141.288 438.476 146.265 438.476 152.405" fill="#FF4B33"/><path id="Fill 6" fill-rule="evenodd" clip-rule="evenodd" d="M427.359 143.288C422.332 143.288 418.242 147.378 418.242 152.405C418.242 157.433 422.332 161.522 427.359 161.522C432.386 161.522 436.476 157.433 436.476 152.405C436.476 147.378 432.386 143.288 427.359 143.288M427.359 165.522C420.126 165.522 414.242 159.638 414.242 152.405C414.242 145.172 420.126 139.288 427.359 139.288C434.592 139.288 440.476 145.172 440.476 152.405C440.476 159.638 434.592 165.522 427.359 165.522" fill="#141414"/></g></g></g><g id="Table"><path id="Assets 70 (Stroke)" fill-rule="evenodd" clip-rule="evenodd" d="M688 983H716.049L709.587 1517H694.462L688 983ZM692.049 987L698.414 1513H705.635L712 987H692.049Z" fill="#070707"/><path id="Assets 71 (Stroke)" fill-rule="evenodd" clip-rule="evenodd" d="M1287 983H1315.05L1308.59 1517H1293.46L1287 983ZM1291.05 987L1297.41 1513H1304.64L1311 987H1291.05Z" fill="#070707"/><path id="Assets 72 (Stroke)" fill-rule="evenodd" clip-rule="evenodd" d="M455 983H483.049L476.587 1517H461.462L455 983ZM459.049 987L465.414 1513H472.635L479 987H459.049Z" fill="#141414"/><path id="Assets 73 (Stroke)" fill-rule="evenodd" clip-rule="evenodd" d="M1054 983H1082.05L1075.59 1517H1060.46L1054 983ZM1058.05 987L1064.41 1513H1071.64L1078 987H1058.05Z" fill="#141414"/><path id="Assets 74 (Stroke)" fill-rule="evenodd" clip-rule="evenodd" d="M1395 954H626V991H1395V954ZM622 950V995H1399V950H622Z" fill="#141414"/><path id="Assets 75 (Stroke)" fill-rule="evenodd" clip-rule="evenodd" d="M636 954H407V991H636V954ZM403 950V995H640V950H403Z" fill="#141414"/></g><g id="Projector"><rect id="Assets 76" x="575" y="900" width="213" height="50" rx="15" fill="#13D6C3"/><circle id="Oval" cx="712.75" cy="924.75" r="12.75" fill="#FF4B33"/><path id="Rectangle" fill-rule="evenodd" clip-rule="evenodd" d="M401 747H962L778.975 900H583.025L401 747Z" fill="url(#paint0_lineard510cea6-9cf5-4604-8ae1-40f06b28d3b8)"/><circle id="Assets 77" cx="751.75" cy="924.75" r="12.75" fill="#FFC81A"/></g><g id="Plant" transform="translate(1755 659) scale(1 1)"><g id="Plant/Plant 6"><g id="Plant"><path id="Fill 1" fill-rule="evenodd" clip-rule="evenodd" d="M226.829 426.385C178.48 432.74 140.157 520.068 304.291 608.259C309.19 483.322 286.165 418.584 226.829 426.385" fill="#FFC81A"/><path id="Fill 3" fill-rule="evenodd" clip-rule="evenodd" d="M152.789 595.688C116.696 611.566 139.253 688.867 266.977 722.927C270.938 621.904 196.305 576.545 152.789 595.688" fill="#FFC81A"/><path id="Fill 5" fill-rule="evenodd" clip-rule="evenodd" d="M453.604 656.688C465.962 619.244 403.605 571.099 292.816 643.207C365.227 713.761 438.704 701.833 453.604 656.688" fill="#FFC81A"/><path id="Fill 7" fill-rule="evenodd" clip-rule="evenodd" d="M499.721 376.808C473.27 332.932 373.03 353.652 350.336 523.898C481.178 512.236 531.612 429.708 499.721 376.808" fill="#FFC81A"/><path id="Fill 10" fill-rule="evenodd" clip-rule="evenodd" d="M252.792 853.29H252.812C253.916 853.279 254.803 852.375 254.792 851.27C254.786 850.642 254.421 787.41 274.359 706.204C286.061 658.545 302.363 614.109 322.813 574.132C348.355 524.203 380.476 481.126 418.285 446.097C419.096 445.347 419.144 444.081 418.393 443.27C417.642 442.461 416.375 442.412 415.566 443.163C377.397 478.525 344.982 521.997 319.222 572.37C298.629 612.639 282.219 657.382 270.448 705.359C250.409 787.032 250.786 850.676 250.792 851.31C250.803 852.407 251.696 853.29 252.792 853.29" fill="#141414"/></g></g></g><g id="Assets 78"><path id="Fill 1_2" fill-rule="evenodd" clip-rule="evenodd" d="M1411.04 386C1433.63 386 1452 404.374 1452 426.959V604.675L1393.36 554.846C1393 554.538 1392.54 554.37 1392.06 554.37H1181.85C1159.26 554.37 1140.89 535.996 1140.89 513.411V426.959C1140.89 404.374 1159.26 386 1181.85 386H1411.04ZM1454 610.999C1454.28 610.999 1454.57 610.938 1454.84 610.814C1455.55 610.487 1456 609.778 1456 608.999V426.959C1456 402.168 1435.83 382 1411.04 382H1181.85C1157.06 382 1136.89 402.168 1136.89 426.959V513.411C1136.89 538.201 1157.06 558.37 1181.85 558.37H1391.33L1452.7 610.523C1453.07 610.836 1453.53 610.999 1454 610.999V610.999Z" fill="#141414"/><path id="Fill 3" fill-rule="evenodd" clip-rule="evenodd" d="M1199.15 448.141H1402.01C1405.93 448.141 1409.1 444.967 1409.1 441.051C1409.1 437.136 1405.93 433.962 1402.01 433.962H1199.15C1195.23 433.962 1192.06 437.136 1192.06 441.051C1192.06 444.967 1195.23 448.141 1199.15 448.141" fill="#FF4B33"/><path id="Fill 5" fill-rule="evenodd" clip-rule="evenodd" d="M1199.14 480.103H1358.96C1362.88 480.103 1366.05 476.929 1366.05 473.014C1366.05 469.098 1362.88 465.924 1358.96 465.924H1199.14C1195.23 465.924 1192.05 469.098 1192.05 473.014C1192.05 476.929 1195.23 480.103 1199.14 480.103" fill="#FF4B33"/><path id="Fill 7" fill-rule="evenodd" clip-rule="evenodd" d="M1199.14 512.065H1276.37C1280.28 512.065 1283.46 508.891 1283.46 504.975C1283.46 501.06 1280.28 497.886 1276.37 497.886H1199.14C1195.23 497.886 1192.06 501.06 1192.06 504.975C1192.06 508.891 1195.23 512.065 1199.14 512.065" fill="#FF4B33"/></g></g><defs><linearGradient id="paint0_lineard510cea6-9cf5-4604-8ae1-40f06b28d3b8" x1="408.159" y1="749.932" x2="408.159" y2="899.027" gradientUnits="userSpaceOnUse"><stop stop-color="#FFC81A" stop-opacity="0.01"/><stop offset="1" stop-color="#FFC81A"/></linearGradient></defs></svg>